# xmcd
#
# Track frame offsets:
# 150
# 12620
# 25006
# 38351
# 50500
# 61612
# 73184
# 86782
# 95724
# 101561
# 113280
# 124551
# 136854
# 150544
# 161090
# 175018
# 187421
# 204094
#
# Disc length: 2879 seconds
#
#
# Revision: 0
# Processed by: cddbd v1.5.1PL2 Copyright (c) Steve Scherf et al.
# Submitted via: FreeRIP 2.945 
#
DISCID=e40b3d12
DTITLE=Various Country Artists - Country Greats
DYEAR=1900
DGENRE=Country
TTITLE0=01-Folsom Prison Blues - Johnny Cash
TTITLE1=02-By the Time I get to Phoenix (Live) - Glen Campbell
TTITLE2=03-Games People Play (Live) - Merle Haggard
TTITLE3=04-I Walk the Line - Johnny Cash
TTITLE4=05-Just Call Me Lonesome - Jim Reeves
TTITLE5=06-Walkin' After Midnight - Patsy Cline
TTITLE6=07-That's the Way Love Goes (Live) - Merle Haggard
TTITLE7=08-Wichita Lineman/Galveston (Live) - Glen Campbell
TTITLE8=09-Have I Told You Lately - Jim Reeves
TTITLE9=10-A Poem for my Little Lady - Kenny Rogers
TTITLE10=11-Crazy Dreams - Patsy Cline
TTITLE11=12-Blue Side of Lonesome - George Jones
TTITLE12=13-You're my Best Friend (Live) - Don Williams
TTITLE13=14-That's How Much I Love You - Patsy Cline
TTITLE14=15-All I Have to Offer You (is Me) - George Jones
TTITLE15=16-Crystal Chandeliers - Charley Pride
TTITLE16=17-I Let my Mind Wander - Willie Nelson
TTITLE17=18-Today, Tomorrow and Forever - Patsy Cline
EXTD=
EXTT0=
EXTT1=
EXTT2=
EXTT3=
EXTT4=
EXTT5=
EXTT6=
EXTT7=
EXTT8=
EXTT9=
EXTT10=
EXTT11=
EXTT12=
EXTT13=
EXTT14=
EXTT15=
EXTT16=
EXTT17=
PLAYORDER=
